<svg width="16" height="10" viewBox="0 0 16 10" fill="none" xmlns="http://www.w3.org/2000/svg">
<path d="M14.3875 1.47501C13.65 1.48751 13.0375 2.13751 13.075 2.87501C13.0875 3.28751 13.2875 3.63751 13.5875 3.87501C12.0375 5.95001 10.4625 6.11251 8.63749 2.67501C9.28749 2.35001 9.64999 1.52501 9.17499 0.700013C8.94999 0.300012 8.48749 0.100012 8.02499 0.125012C8.01249 0.125012 8.01249 0.125012 7.99999 0.125012C7.99999 0.125012 7.98749 0.125012 7.97499 0.125012C7.51249 0.112512 7.06249 0.300012 6.82499 0.700013C6.34999 1.52501 6.71249 2.35001 7.36249 2.67501C5.53749 6.11251 3.96249 5.95001 2.41249 3.87501C2.71249 3.63751 2.91249 3.27501 2.92499 2.87501C2.94999 2.13751 2.34999 1.48751 1.61249 1.47501C0.849988 1.46251 0.237488 2.06251 0.237488 2.82501C0.237488 3.56251 0.837488 4.17501 1.58749 4.17501C1.63749 4.17501 1.69999 4.17501 1.74999 4.16251L2.26249 9.18751C2.29999 9.58751 2.63749 9.88751 3.03749 9.88751H7.99999H12.9625C13.3625 9.88751 13.7 9.58751 13.7375 9.18751L14.25 4.16251C14.3 4.17501 14.35 4.17501 14.4125 4.17501C15.15 4.17501 15.7625 3.57501 15.7625 2.82501C15.7625 2.06251 15.1375 1.46251 14.3875 1.47501Z" fill="#FFDD01"/>
</svg>
