<svg width="59" height="59" viewBox="0 0 59 59" fill="none" xmlns="http://www.w3.org/2000/svg">
<path d="M18.0084 31.6635L19.7653 32.3977V20.5584L16.5793 28.2415C16.0418 29.5788 16.6842 31.1128 18.0084 31.6635ZM42.701 26.8124L36.1979 11.1184C35.7915 10.135 34.8344 9.53192 33.8248 9.5057C33.4839 9.5057 33.1299 9.55815 32.789 9.70237L24.0002 13.7013C23.0169 14.1077 22.4138 15.0517 22.3876 16.0613C22.3744 16.4153 22.44 16.7693 22.5842 17.1101L29.0873 32.8041C29.4938 33.8006 30.464 34.4037 31.4867 34.4168C31.8276 34.4168 32.1684 34.3513 32.4962 34.2201L41.2719 30.2213C42.6093 29.6706 43.2517 28.1366 42.701 26.8124ZM22.4007 31.7946C22.4007 33.2368 23.5807 34.4168 25.0229 34.4168H26.924L22.4007 23.4821V31.7946Z" fill="white"/>
<path d="M14.5282 48.6145C14.4051 48.6145 14.3044 48.5855 14.2261 48.5273C14.1478 48.4691 14.1086 48.3942 14.1086 48.3028V40.1974C14.1086 40.106 14.1478 40.0312 14.2261 39.973C14.3044 39.9148 14.4051 39.8857 14.5282 39.8857H16.391C16.5141 39.8857 16.6148 39.9148 16.6931 39.973C16.7714 40.0312 16.8106 40.106 16.8106 40.1974V46.9436H22.0131C22.1362 46.9436 22.2369 46.9727 22.3152 47.0309C22.3935 47.0891 22.4326 47.1639 22.4326 47.2553V48.3028C22.4326 48.3942 22.3935 48.4691 22.3152 48.5273C22.2369 48.5855 22.1362 48.6145 22.0131 48.6145H14.5282Z" fill="white"/>
<path d="M28.2878 48.7392C27.2138 48.7392 26.3131 48.6229 25.5859 48.3901C24.8698 48.1573 24.3272 47.8539 23.958 47.4798C23.5888 47.1057 23.393 46.7067 23.3706 46.2827C23.3706 46.2162 23.4042 46.158 23.4713 46.1081C23.5384 46.0499 23.6224 46.0208 23.723 46.0208H25.5187C25.6642 46.0208 25.7761 46.0458 25.8544 46.0956C25.9327 46.1372 26.0054 46.1913 26.0726 46.2578C26.1509 46.3991 26.2739 46.5362 26.4418 46.6693C26.6208 46.8023 26.8613 46.9145 27.1634 47.0059C27.4655 47.0891 27.8403 47.1306 28.2878 47.1306C29.0151 47.1306 29.5577 47.0434 29.9157 46.8688C30.2849 46.6942 30.4695 46.4573 30.4695 46.158C30.4695 45.9419 30.3688 45.7673 30.1674 45.6343C29.9772 45.5013 29.6696 45.3807 29.2444 45.2726C28.8304 45.1646 28.2766 45.0482 27.583 44.9235C26.7439 44.7905 26.0278 44.6201 25.4348 44.4122C24.853 44.1961 24.4111 43.9217 24.109 43.5892C23.8181 43.2484 23.6727 42.8286 23.6727 42.3298C23.6727 41.831 23.8573 41.3904 24.2265 41.008C24.5957 40.6172 25.116 40.3138 25.7873 40.0977C26.4586 39.8732 27.2585 39.761 28.1871 39.761C28.9367 39.761 29.5968 39.8358 30.1674 39.9854C30.7492 40.1351 31.2303 40.3304 31.6107 40.5715C32.0023 40.8126 32.2988 41.0703 32.5002 41.3447C32.7016 41.619 32.8078 41.885 32.819 42.1427C32.819 42.2092 32.7855 42.2716 32.7183 42.3298C32.6512 42.3796 32.5673 42.4046 32.4666 42.4046H30.587C30.4751 42.4046 30.3744 42.388 30.2849 42.3547C30.1954 42.3215 30.1227 42.2633 30.0667 42.1801C29.9996 41.964 29.7982 41.7769 29.4626 41.619C29.1381 41.4527 28.713 41.3696 28.1871 41.3696C27.6389 41.3696 27.2026 41.4444 26.8781 41.594C26.5648 41.7437 26.4082 41.9723 26.4082 42.2799C26.4082 42.4794 26.4865 42.6498 26.6432 42.7911C26.811 42.9242 27.0851 43.0447 27.4655 43.1528C27.8571 43.2525 28.3717 43.3648 29.0095 43.4895C29.994 43.6391 30.794 43.8178 31.4093 44.0257C32.0247 44.2335 32.4778 44.5037 32.7687 44.8362C33.0596 45.1604 33.205 45.5719 33.205 46.0707C33.205 46.6277 32.9924 47.1057 32.5673 47.5047C32.1533 47.9038 31.5771 48.2114 30.8387 48.4275C30.1115 48.6353 29.2612 48.7392 28.2878 48.7392Z" fill="white"/>
<path d="M35.51 48.6145C35.3869 48.6145 35.2862 48.5855 35.2079 48.5273C35.1296 48.4691 35.0904 48.3942 35.0904 48.3028V40.1974C35.0904 40.106 35.1296 40.0312 35.2079 39.973C35.2862 39.9148 35.3869 39.8857 35.51 39.8857H39.7223C40.8411 39.8857 41.7753 40.0187 42.525 40.2847C43.2746 40.5424 43.8452 40.9248 44.2367 41.4319C44.6395 41.9307 44.8521 42.5501 44.8745 43.2899C44.8857 43.6557 44.8912 43.9758 44.8912 44.2501C44.8912 44.5245 44.8857 44.8404 44.8745 45.1978C44.8409 45.971 44.6339 46.6111 44.2535 47.1182C43.8731 47.6253 43.3137 48.0035 42.5753 48.2529C41.8369 48.494 40.9139 48.6145 39.8062 48.6145H35.51ZM37.7588 47.0059H39.7223C40.2817 47.0059 40.7404 46.9436 41.0985 46.8189C41.4565 46.6942 41.7194 46.4988 41.8872 46.2328C42.0662 45.9585 42.1613 45.6052 42.1725 45.1729C42.1837 44.9318 42.1893 44.7157 42.1893 44.5245C42.2005 44.3332 42.2005 44.142 42.1893 43.9508C42.1893 43.7596 42.1837 43.5477 42.1725 43.3149C42.1501 42.6914 41.932 42.2342 41.518 41.9432C41.1152 41.6439 40.4887 41.4943 39.6384 41.4943H37.7588V47.0059Z" fill="white"/>
<mask id="path-3-inside-1_129_1283" fill="white">
<path d="M0 11.8C0 5.28304 5.28304 0 11.8 0H47.2C53.717 0 59 5.28304 59 11.8V47.2C59 53.717 53.717 59 47.2 59H11.8C5.28304 59 0 53.717 0 47.2V11.8Z"/>
</mask>
<path d="M11.8 4H47.2V-4H11.8V4ZM55 11.8V47.2H63V11.8H55ZM47.2 55H11.8V63H47.2V55ZM4 47.2V11.8H-4V47.2H4ZM11.8 55C7.49218 55 4 51.5078 4 47.2H-4C-4 55.9261 3.0739 63 11.8 63V55ZM55 47.2C55 51.5078 51.5078 55 47.2 55V63C55.9261 63 63 55.9261 63 47.2H55ZM47.2 4C51.5078 4 55 7.49218 55 11.8H63C63 3.0739 55.9261 -4 47.2 -4V4ZM11.8 -4C3.0739 -4 -4 3.0739 -4 11.8H4C4 7.49218 7.49218 4 11.8 4V-4Z" fill="white" mask="url(#path-3-inside-1_129_1283)"/>
</svg>
