<svg xmlns="http://www.w3.org/2000/svg" xmlns:xlink="http://www.w3.org/1999/xlink" width="185" height="78" viewBox="0 0 185 78">
  <defs>
    <clipPath id="clip-path">
      <path id="Path_856" data-name="Path 856" d="M13.992-185.833v-44.793H25.661v35.257H40.027v9.536ZM71.457-217.7H60.541v-1.066q0-4.831-3.355-4.831a3.315,3.315,0,0,0-2.722,1.161,4.268,4.268,0,0,0-.949,2.792q0,3.45,4.956,5.709a93.374,93.374,0,0,1,9.159,4.454q4.956,3.7,4.956,10.728,0,13.8-15.872,13.8-7.528,0-11.167-2.823-3.89-3.074-3.89-9.787v-1.568H52.95v1.066q0,5.207,3.827,5.207a3.377,3.377,0,0,0,2.76-1.223,4.734,4.734,0,0,0,1-3.105q0-3.513-4.768-5.646-7.967-3.7-8.783-4.329-4.768-3.513-4.768-10.351,0-13.99,14.711-13.99,7.608,0,11.065,3.294T71.457-217.7ZM88.4-222.219v27.98h2.283a4.25,4.25,0,0,0,4.133-2.572,14.316,14.316,0,0,0,.987-5.709v-11.418a14.316,14.316,0,0,0-.987-5.709,4.25,4.25,0,0,0-4.133-2.572ZM76.727-185.833v-44.793H93.665q9.1,0,12.171,6.775,2.007,4.517,2.007,15.621t-2.007,15.621q-3.074,6.775-12.171,6.775Z" transform="translate(-13.992 231.504)" fill="#0c1222"/>
    </clipPath>
    <linearGradient id="linear-gradient" x1="0.5" x2="0.5" y2="1" gradientUnits="objectBoundingBox">
      <stop offset="0" stop-color="#ffa936"/>
      <stop offset="0.411" stop-color="#ff8548"/>
      <stop offset="0.778" stop-color="#ff6c54"/>
      <stop offset="1" stop-color="#ff6359"/>
    </linearGradient>
    <linearGradient id="linear-gradient-2" x1="0.5" x2="0.5" y2="1" gradientUnits="objectBoundingBox">
      <stop offset="0" stop-color="#cdec7a"/>
      <stop offset="0.216" stop-color="#b0e995"/>
      <stop offset="0.561" stop-color="#87e4bb"/>
      <stop offset="0.835" stop-color="#6ee1d2"/>
      <stop offset="1" stop-color="#65e0db"/>
    </linearGradient>
    <linearGradient id="linear-gradient-3" x1="0.5" x2="0.5" y2="1" gradientUnits="objectBoundingBox">
      <stop offset="0" stop-color="#18cefb"/>
      <stop offset="0.297" stop-color="#2bb9f9"/>
      <stop offset="0.734" stop-color="#42a0f7"/>
      <stop offset="1" stop-color="#4a97f6"/>
    </linearGradient>
    <filter id="Path_787" x="21.581" y="32.715" width="47.821" height="38.147" filterUnits="userSpaceOnUse">
      <feOffset dy="3" input="SourceAlpha"/>
      <feGaussianBlur stdDeviation="5" result="blur"/>
      <feFlood flood-opacity="0.161"/>
      <feComposite operator="in" in2="blur"/>
      <feComposite in="SourceGraphic"/>
    </filter>
    <filter id="Rectangle_40" x="1.157" y="22.496" width="63.511" height="47.433" filterUnits="userSpaceOnUse">
      <feOffset dy="3" input="SourceAlpha"/>
      <feGaussianBlur stdDeviation="5" result="blur-2"/>
      <feFlood flood-opacity="0.161"/>
      <feComposite operator="in" in2="blur-2"/>
      <feComposite in="SourceGraphic"/>
    </filter>
    <linearGradient id="linear-gradient-5" y1="0.5" x2="1" y2="0.5" gradientUnits="objectBoundingBox">
      <stop offset="0" stop-color="#29abe2"/>
      <stop offset="1" stop-color="#8cc63f"/>
    </linearGradient>
    <linearGradient id="linear-gradient-6" y1="0.5" x2="1" y2="0.5" gradientUnits="objectBoundingBox">
      <stop offset="0" stop-color="#ed2b24"/>
      <stop offset="1" stop-color="#fbb03b"/>
    </linearGradient>
    <filter id="Path_803" x="9.877" y="39.18" width="57.392" height="39.644" filterUnits="userSpaceOnUse">
      <feOffset dy="3" input="SourceAlpha"/>
      <feGaussianBlur stdDeviation="5" result="blur-3"/>
      <feFlood flood-opacity="0.161"/>
      <feComposite operator="in" in2="blur-3"/>
      <feComposite in="SourceGraphic"/>
    </filter>
    <radialGradient id="radial-gradient" cx="0.5" cy="0.5" r="0.5" gradientUnits="objectBoundingBox">
      <stop offset="0.051" stop-color="#ffcc4d"/>
      <stop offset="0.221" stop-color="#ff9863"/>
      <stop offset="0.403" stop-color="#ff6678"/>
      <stop offset="0.493" stop-color="#ff5280"/>
      <stop offset="0.608" stop-color="#f14c8c"/>
      <stop offset="0.823" stop-color="#cd3cad"/>
      <stop offset="1" stop-color="#aa2dcc"/>
    </radialGradient>
    <clipPath id="clip-path-2">
      <path id="Path_852" data-name="Path 852" d="M13.992-185.881v-44.745H25.648v35.22H40v9.526Zm57.4-31.836h-10.9v-1.065q0-4.826-3.352-4.825a3.311,3.311,0,0,0-2.719,1.159,4.264,4.264,0,0,0-.948,2.789q0,3.447,4.951,5.7a93.277,93.277,0,0,1,9.15,4.449q4.951,3.7,4.951,10.716Q72.525-185,56.669-185q-7.52,0-11.155-2.82-3.885-3.071-3.885-9.776v-1.567h11.28v1.065q0,5.2,3.823,5.2a3.374,3.374,0,0,0,2.757-1.222,4.73,4.73,0,0,0,1-3.1q0-3.509-4.763-5.64-7.959-3.7-8.774-4.324-4.763-3.509-4.763-10.34,0-13.975,14.7-13.975,7.6,0,11.054,3.29T71.4-217.717Zm16.921-4.512v27.95H90.6a4.246,4.246,0,0,0,4.128-2.569,14.3,14.3,0,0,0,.986-5.7v-11.406a14.3,14.3,0,0,0-.986-5.7,4.246,4.246,0,0,0-4.128-2.569ZM76.661-185.881v-44.745H93.581q9.087,0,12.158,6.768,2.005,4.512,2.005,15.6t-2.005,15.6q-3.071,6.768-12.158,6.768Z" transform="translate(-13.992 231.504)" fill="#0c1222"/>
    </clipPath>
    <clipPath id="clip-_185X78">
      <rect width="185" height="78"/>
    </clipPath>
  </defs>
  <g id="_185X78" data-name="185X78" clip-path="url(#clip-_185X78)">
    <g id="Group_297" data-name="Group 297" transform="translate(-14.256 -9.615)">
      <g id="Group_286" data-name="Group 286" transform="translate(101.334 20.219)">
        <path id="Path_849" data-name="Path 849" d="M13.992-185.833v-44.793H25.661v35.257H40.027v9.536ZM71.457-217.7H60.541v-1.066q0-4.831-3.355-4.831a3.315,3.315,0,0,0-2.722,1.161,4.268,4.268,0,0,0-.949,2.792q0,3.45,4.956,5.709a93.374,93.374,0,0,1,9.159,4.454q4.956,3.7,4.956,10.728,0,13.8-15.872,13.8-7.528,0-11.167-2.823-3.89-3.074-3.89-9.787v-1.568H52.95v1.066q0,5.207,3.827,5.207a3.377,3.377,0,0,0,2.76-1.223,4.734,4.734,0,0,0,1-3.105q0-3.513-4.768-5.646-7.967-3.7-8.783-4.329-4.768-3.513-4.768-10.351,0-13.99,14.711-13.99,7.608,0,11.065,3.294T71.457-217.7ZM88.4-222.219v27.98h2.283a4.25,4.25,0,0,0,4.133-2.572,14.316,14.316,0,0,0,.987-5.709v-11.418a14.316,14.316,0,0,0-.987-5.709,4.25,4.25,0,0,0-4.133-2.572ZM76.727-185.833v-44.793H93.665q9.1,0,12.171,6.775,2.007,4.517,2.007,15.621t-2.007,15.621q-3.074,6.775-12.171,6.775Z" transform="translate(-13.992 235.968)" fill="#343a49"/>
        <g id="Group_296" data-name="Group 296" transform="translate(0)">
          <g id="Mask_Group_5" data-name="Mask Group 5" transform="translate(0)" clip-path="url(#clip-path)">
            <rect id="Rectangle_83" data-name="Rectangle 83" width="154.42" height="3.764" transform="translate(-51.585 39.279) rotate(-45)" fill="#0d4dfe"/>
            <rect id="Rectangle_84" data-name="Rectangle 84" width="154.42" height="3.764" transform="translate(-48.96 41.903) rotate(-45)" fill="#c0f"/>
            <rect id="Rectangle_85" data-name="Rectangle 85" width="154.42" height="3.764" transform="translate(-46.262 44.602) rotate(-45)" fill="#fff"/>
            <rect id="Rectangle_86" data-name="Rectangle 86" width="154.42" height="3.764" transform="translate(-43.637 47.226) rotate(-45)" fill="#c0f"/>
            <path id="Path_854" data-name="Path 854" d="M0,0,154.559.139V3.9H.139Z" transform="translate(-41.136 49.925) rotate(-45)" fill="#fff"/>
            <rect id="Rectangle_87" data-name="Rectangle 87" width="154.42" height="3.764" transform="translate(-38.314 52.549) rotate(-45)" fill="#c0f"/>
            <rect id="Rectangle_88" data-name="Rectangle 88" width="154.42" height="3.764" transform="translate(-35.813 55.248) rotate(-45)" fill="#fff"/>
            <rect id="Rectangle_89" data-name="Rectangle 89" width="154.42" height="3.764" transform="translate(-33.188 57.872) rotate(-45)" fill="#c0f"/>
            <rect id="Rectangle_90" data-name="Rectangle 90" width="154.42" height="3.764" transform="translate(-30.687 60.571) rotate(-45)" fill="#fff"/>
            <rect id="Rectangle_91" data-name="Rectangle 91" width="154.42" height="3.764" transform="translate(-28.063 63.195) rotate(-45)" fill="#c0f"/>
            <rect id="Rectangle_92" data-name="Rectangle 92" width="154.42" height="3.764" transform="translate(-25.562 65.894) rotate(-45)" fill="#fff"/>
            <rect id="Rectangle_93" data-name="Rectangle 93" width="154.42" height="3.764" transform="translate(-22.937 68.518) rotate(-45)" fill="#c0f"/>
            <rect id="Rectangle_94" data-name="Rectangle 94" width="154.42" height="3.764" transform="translate(-20.436 71.217) rotate(-45)" fill="#fff"/>
            <rect id="Rectangle_95" data-name="Rectangle 95" width="154.42" height="3.764" transform="translate(-17.811 73.841) rotate(-45)" fill="#c0f"/>
            <rect id="Rectangle_96" data-name="Rectangle 96" width="154.42" height="3.764" transform="translate(-15.37 76.54) rotate(-45)" fill="#fff"/>
            <rect id="Rectangle_97" data-name="Rectangle 97" width="154.42" height="3.764" transform="translate(-12.745 79.164) rotate(-45)" fill="#c0f"/>
            <path id="Path_855" data-name="Path 855" d="M0,0,154.6.182V3.945H.182Z" transform="translate(-10.303 81.863) rotate(-45)" fill="#fff"/>
            <rect id="Rectangle_98" data-name="Rectangle 98" width="154.42" height="3.764" transform="translate(-7.422 84.487) rotate(-45)" fill="#c0f"/>
            <rect id="Rectangle_99" data-name="Rectangle 99" width="154.42" height="3.764" transform="translate(-4.981 87.186) rotate(-45)" fill="#fff"/>
            <rect id="Rectangle_100" data-name="Rectangle 100" width="154.42" height="3.764" transform="translate(-2.356 89.81) rotate(-45)" fill="#c0f"/>
            <rect id="Rectangle_101" data-name="Rectangle 101" width="154.42" height="3.764" transform="translate(-0.171 92.765) rotate(-45)" fill="#fff"/>
            <rect id="Rectangle_102" data-name="Rectangle 102" width="154.42" height="3.764" transform="translate(2.711 95.133) rotate(-45)" fill="#c0f"/>
            <rect id="Rectangle_103" data-name="Rectangle 103" width="154.42" height="3.764" transform="translate(5.152 97.831) rotate(-45)" fill="#fff"/>
            <rect id="Rectangle_104" data-name="Rectangle 104" width="154.42" height="3.764" transform="translate(7.52 100.456) rotate(-45)" fill="#c0f"/>
            <rect id="Rectangle_105" data-name="Rectangle 105" width="154.42" height="3.764" transform="translate(9.961 103.154) rotate(-45)" fill="#fff"/>
            <rect id="Rectangle_106" data-name="Rectangle 106" width="154.42" height="3.764" transform="translate(12.586 105.779) rotate(-45)" fill="#c0f"/>
            <rect id="Rectangle_107" data-name="Rectangle 107" width="154.42" height="3.764" transform="translate(-62.231 28.633) rotate(-45)" fill="#0d4dfe"/>
            <rect id="Rectangle_108" data-name="Rectangle 108" width="154.42" height="3.764" transform="translate(-59.606 31.257) rotate(-45)" fill="#c0f"/>
            <rect id="Rectangle_109" data-name="Rectangle 109" width="154.42" height="3.764" transform="translate(-56.908 33.956) rotate(-45)" fill="#0d4dfe"/>
            <rect id="Rectangle_110" data-name="Rectangle 110" width="154.42" height="3.764" transform="translate(-54.283 36.58) rotate(-45)" fill="#c0f"/>
            <rect id="Rectangle_111" data-name="Rectangle 111" width="154.42" height="3.764" transform="translate(15.028 108.477) rotate(-45)" fill="#fff"/>
            <rect id="Rectangle_112" data-name="Rectangle 112" width="154.42" height="3.764" transform="translate(17.652 111.102) rotate(-45)" fill="#c0f"/>
            <rect id="Rectangle_113" data-name="Rectangle 113" width="154.42" height="3.764" transform="translate(20.094 113.8) rotate(-45)" fill="#0d4dfe"/>
            <rect id="Rectangle_114" data-name="Rectangle 114" width="154.42" height="3.764" transform="translate(22.719 116.425) rotate(-45)" fill="#c0f"/>
            <rect id="Rectangle_115" data-name="Rectangle 115" width="154.42" height="3.764" transform="translate(25.417 119.123) rotate(-45)" fill="#0d4dfe"/>
            <rect id="Rectangle_116" data-name="Rectangle 116" width="154.42" height="3.764" transform="translate(28.042 121.748) rotate(-45)" fill="#c0f"/>
            <rect id="Rectangle_117" data-name="Rectangle 117" width="154.42" height="3.764" transform="translate(30.74 124.446) rotate(-45)" fill="#0d4dfe"/>
            <rect id="Rectangle_118" data-name="Rectangle 118" width="154.42" height="3.764" transform="translate(33.365 127.071) rotate(-45)" fill="#c0f"/>
          </g>
          <path id="Path_857" data-name="Path 857" d="M4-22.8H7.116v1.177H2.539V-28.73H4Zm9.131-1.9H10.322v1.9h3.3v1.177H8.856V-28.73h4.757v1.187H10.322v1.695h2.813Zm7.7-2.843H18.656v5.925H17.191v-5.925H15.042V-28.73h5.793Zm8.522,4.059a.752.752,0,0,0-.293-.637,3.844,3.844,0,0,0-1.055-.469,7.479,7.479,0,0,1-1.206-.486A1.971,1.971,0,0,1,25.59-26.84a1.717,1.717,0,0,1,.325-1.028,2.119,2.119,0,0,1,.933-.706,3.512,3.512,0,0,1,1.365-.254,3.2,3.2,0,0,1,1.358.276,2.162,2.162,0,0,1,.926.779,2.039,2.039,0,0,1,.33,1.143H29.361a.959.959,0,0,0-.308-.76,1.265,1.265,0,0,0-.865-.271,1.351,1.351,0,0,0-.835.227.716.716,0,0,0-.3.6.686.686,0,0,0,.349.581,3.946,3.946,0,0,0,1.028.44,4.443,4.443,0,0,1,1.822.933,1.858,1.858,0,0,1,.571,1.387,1.711,1.711,0,0,1-.7,1.448,3.058,3.058,0,0,1-1.881.525,3.631,3.631,0,0,1-1.495-.3,2.365,2.365,0,0,1-1.028-.823,2.108,2.108,0,0,1-.354-1.211h1.47q0,1.177,1.407,1.177a1.368,1.368,0,0,0,.816-.212A.691.691,0,0,0,29.356-23.485Zm8.715-4.059H35.893v5.925H34.428v-5.925H32.279V-28.73h5.793Zm7.441,2.53a4.293,4.293,0,0,1-.371,1.841,2.8,2.8,0,0,1-1.062,1.221,2.939,2.939,0,0,1-1.585.43,2.959,2.959,0,0,1-1.578-.425,2.823,2.823,0,0,1-1.075-1.214,4.17,4.17,0,0,1-.386-1.815v-.352a4.271,4.271,0,0,1,.379-1.849A2.819,2.819,0,0,1,40.9-28.4a2.942,2.942,0,0,1,1.58-.427,2.942,2.942,0,0,1,1.58.427,2.818,2.818,0,0,1,1.07,1.226,4.259,4.259,0,0,1,.379,1.844Zm-1.485-.322a2.993,2.993,0,0,0-.4-1.7,1.305,1.305,0,0,0-1.143-.581,1.306,1.306,0,0,0-1.138.574,2.959,2.959,0,0,0-.405,1.683v.347a3.03,3.03,0,0,0,.4,1.69,1.3,1.3,0,0,0,1.153.6,1.29,1.29,0,0,0,1.133-.579,3.013,3.013,0,0,0,.4-1.688Zm6.083,1.114H48.943v2.6H47.477V-28.73H50.12a2.987,2.987,0,0,1,1.944.562,1.939,1.939,0,0,1,.684,1.587,2.188,2.188,0,0,1-.315,1.214,2.149,2.149,0,0,1-.955.774l1.539,2.906v.068H51.444Zm-1.167-1.187h1.182a1.21,1.21,0,0,0,.855-.281,1,1,0,0,0,.3-.774A1.075,1.075,0,0,0,51-27.255a1.187,1.187,0,0,0-.877-.288H48.943Zm8.037-.117,1.48-3.2h1.6L57.727-24.2v2.579h-1.49V-24.2L53.9-28.73h1.607ZM65-21.619V-28.73h2.188a3.323,3.323,0,0,1,1.678.423,2.946,2.946,0,0,1,1.155,1.2,3.706,3.706,0,0,1,.415,1.771v.327a3.717,3.717,0,0,1-.408,1.763,2.921,2.921,0,0,1-1.15,1.2,3.348,3.348,0,0,1-1.675.43Zm1.465-5.925V-22.8h.708a1.591,1.591,0,0,0,1.314-.562,2.538,2.538,0,0,0,.464-1.607v-.376a2.579,2.579,0,0,0-.449-1.644,1.586,1.586,0,0,0-1.314-.559Zm8.569,3.321H73.87v2.6H72.4V-28.73h2.642a2.987,2.987,0,0,1,1.944.562,1.939,1.939,0,0,1,.684,1.587,2.188,2.188,0,0,1-.315,1.214,2.149,2.149,0,0,1-.955.774l1.539,2.906v.068H76.37ZM73.87-25.409h1.182a1.21,1.21,0,0,0,.855-.281,1,1,0,0,0,.3-.774,1.075,1.075,0,0,0-.286-.791,1.188,1.188,0,0,0-.877-.288H73.87Zm7.377,3.79H79.781V-28.73h1.465Zm4.886-1.763,1.612-5.348h1.631L86.9-21.619H85.371L82.9-28.73h1.627ZM95.224-24.7H92.411v1.9h3.3v1.177H90.945V-28.73H95.7v1.187H92.411v1.695h2.813Z" transform="translate(-2.539 87.112)" fill="#fff"/>
        </g>
      </g>
      <g id="Group_294" data-name="Group 294" transform="translate(18.256 10.615)">
        <g id="Group_288" data-name="Group 288" transform="translate(0 0)">
          <path id="Subtraction_9" data-name="Subtraction 9" d="M44.415,65.794a1.839,1.839,0,0,1-.475-.063L1.358,54.322a1.832,1.832,0,0,1-1.3-2.243L13.654,1.358A1.83,1.83,0,0,1,15.9.063L32.826,4.6A13.112,13.112,0,0,0,34.6,22.48l.006.005h0a13.052,13.052,0,0,0,8.563,3.2h0a13.073,13.073,0,0,0,9.879-4.5l6.781-7.809a1.852,1.852,0,0,1-.058.337L46.183,64.436A1.834,1.834,0,0,1,44.415,65.794Z" transform="translate(4.652 9.49)" fill="url(#linear-gradient)"/>
          <g id="Ellipse_2" data-name="Ellipse 2" transform="matrix(0.966, 0.259, -0.259, 0.966, 21.235, 12.935)" fill="#fff" stroke="#0e4eff" stroke-width="3">
            <ellipse cx="7.162" cy="7.443" rx="7.162" ry="7.443" stroke="none"/>
            <ellipse cx="7.162" cy="7.443" rx="5.662" ry="5.943" fill="none"/>
          </g>
          <rect id="Rectangle_2" data-name="Rectangle 2" width="20.503" height="1.966" rx="0.983" transform="matrix(0.966, 0.259, -0.259, 0.966, 10.331, 53.629)" fill="#e1e1e1"/>
          <rect id="Rectangle_3" data-name="Rectangle 3" width="33.985" height="1.966" rx="0.983" transform="matrix(0.966, 0.259, -0.259, 0.966, 9.386, 57.156)" fill="#e1e1e1"/>
          <path id="Subtraction_7" data-name="Subtraction 7" d="M15.421,64.84h0a1.833,1.833,0,0,1-1.768-1.358L.063,12.762a1.834,1.834,0,0,1,1.3-2.244L40.613,0,37.962,3.053a13.12,13.12,0,0,0,1.29,18.473l0,0,0,0h0a13.051,13.051,0,0,0,8.563,3.2h0a13.1,13.1,0,0,0,4.65-.849l7.3,27.241a1.834,1.834,0,0,1-1.3,2.243L15.9,64.777A1.839,1.839,0,0,1,15.421,64.84Z" transform="translate(0 10.444)" fill="url(#linear-gradient-2)"/>
          <g id="Path_861" data-name="Path 861" transform="matrix(0.966, -0.259, 0.259, 0.966, 3.644, 23.548)" fill="#fff">
            <path d="M 7.162056446075439 14.63584423065186 C 3.350736379623413 14.63584423065186 0.2499964535236359 11.40911483764648 0.2499964535236359 7.442924499511719 C 0.2499964535236359 3.476734399795532 3.350736379623413 0.2500045001506805 7.162056446075439 0.2500045001506805 C 10.97337627410889 0.2500045001506805 14.07411670684814 3.476734399795532 14.07411670684814 7.442924499511719 C 14.07411670684814 11.40911483764648 10.97337627410889 14.63584423065186 7.162056446075439 14.63584423065186 Z" stroke="none"/>
            <path d="M 7.162056446075439 0.500004768371582 C 3.48858642578125 0.500004768371582 0.4999961853027344 3.614584922790527 0.4999961853027344 7.442924499511719 C 0.4999961853027344 11.27126502990723 3.48858642578125 14.38584423065186 7.162056446075439 14.38584423065186 C 10.83552646636963 14.38584423065186 13.82411670684814 11.27126502990723 13.82411670684814 7.442924499511719 C 13.82411670684814 3.614584922790527 10.83552646636963 0.500004768371582 7.162056446075439 0.500004768371582 M 7.162056446075439 4.76837158203125e-06 C 11.11755657196045 4.76837158203125e-06 14.32411670684814 3.332314491271973 14.32411670684814 7.442924499511719 C 14.32411670684814 11.55353450775146 11.11755657196045 14.88584423065186 7.162056446075439 14.88584423065186 C 3.20656681060791 14.88584423065186 -3.814697265625e-06 11.55353450775146 -3.814697265625e-06 7.442924499511719 C -3.814697265625e-06 3.332314491271973 3.20656681060791 4.76837158203125e-06 7.162056446075439 4.76837158203125e-06 Z" stroke="none" fill="#0e4eff"/>
          </g>
          <rect id="Rectangle_2-2" data-name="Rectangle 2" width="20.503" height="1.966" rx="0.983" transform="matrix(0.966, -0.259, 0.259, 0.966, 14.548, 64.243)" fill="#e1e1e1"/>
          <rect id="Rectangle_3-2" data-name="Rectangle 3" width="33.985" height="1.966" rx="0.983" transform="matrix(0.966, -0.259, 0.259, 0.966, 15.493, 67.77)" fill="#e1e1e1"/>
          <path id="Subtraction_8" data-name="Subtraction 8" d="M45.935,56.151H1.832A1.834,1.834,0,0,1,0,54.319V1.832A1.834,1.834,0,0,1,1.832,0H29.193a13.076,13.076,0,0,0,1.7,17.968h0a13.1,13.1,0,0,0,16.87.249v36.1A1.834,1.834,0,0,1,45.935,56.151Z" transform="translate(8.412 14.004)" fill="url(#linear-gradient-3)"/>
          <g id="Ellipse_2-2" data-name="Ellipse 2" transform="translate(11.726 17.123)" fill="#fff" stroke="#0e4eff" stroke-width="0.5">
            <ellipse cx="7.214" cy="7.409" rx="7.214" ry="7.409" stroke="none"/>
            <ellipse cx="7.214" cy="7.409" rx="6.964" ry="7.159" fill="none"/>
          </g>
          <rect id="Rectangle_2-3" data-name="Rectangle 2" width="20.472" height="1.071" rx="0.535" transform="translate(11.726 63.786)" fill="#fff"/>
          <rect id="Rectangle_3-3" data-name="Rectangle 3" width="33.924" height="1.071" rx="0.535" transform="translate(11.726 65.939)" fill="#fff"/>
          <g id="magnet" transform="translate(51.972 0) rotate(41)">
            <path id="Path_1" data-name="Path 1" d="M9.29,16.677A10.79,10.79,0,0,0,18.579,5.993V0h-3V5.993A4.795,4.795,0,0,1,9.29,10.548,4.795,4.795,0,0,1,3,5.993V0H0V5.993A10.79,10.79,0,0,0,9.29,16.677Z" transform="translate(3.596 13.305)" fill="#0d4af2"/>
            <g id="Group_4" data-name="Group 4" transform="translate(0.662 7.786)">
              <rect id="Rectangle_4" data-name="Rectangle 4" width="5.85" height="5.607" transform="translate(15.601 0)" fill="#0d4af2"/>
              <rect id="Rectangle_5" data-name="Rectangle 5" width="5.85" height="5.607" transform="translate(0 0)" fill="#0d4af2"/>
            </g>
            <path id="Path_2" data-name="Path 2" d="M1.2.6a.6.6,0,1,0-.6.6A.6.6,0,0,0,1.2.6Z" transform="translate(2.397 18.699)" fill="#0c1222"/>
            <path id="Path_3" data-name="Path 3" d="M0,.6V12.106a11.387,11.387,0,0,0,22.774,0V.6a.6.6,0,0,0-.6-.6H16.182a.6.6,0,0,0-.6.6V12.106a4.2,4.2,0,1,1-8.391,0V.6a.6.6,0,0,0-.6-.6H.6A.6.6,0,0,0,0,.6ZM21.576,5.514H16.781V1.2h4.795ZM11.387,17.5a5.4,5.4,0,0,0,5.394-5.394V6.712h4.795v5.394a10.188,10.188,0,0,1-20.377,0V6.712H5.993v5.394A5.392,5.392,0,0,0,11.387,17.5ZM5.993,1.2V5.514H1.2V1.2Z" transform="translate(0 7.192)" fill="#0c1222"/>
            <path id="Path_4" data-name="Path 4" d="M1.174.43a.6.6,0,0,0-1.15.34,9.073,9.073,0,0,0,3.2,4.619.6.6,0,0,0,.725-.954A7.866,7.866,0,0,1,1.174.43Z" transform="translate(2.739 21.072)" fill="#0c1222"/>
            <path id="Path_5" data-name="Path 5" d="M2.066.063a.6.6,0,0,0-.8.268l-1.2,2.4A.6.6,0,0,0,.6,3.6H2.027l-.765,1.53a.6.6,0,0,0,1.072.536l1.2-2.4A.6.6,0,0,0,3,2.4H1.569L2.334.868A.6.6,0,0,0,2.066.063Z" transform="translate(1.199 0)" fill="#0c1222"/>
            <path id="Path_6" data-name="Path 6" d="M2.066.063a.6.6,0,0,0-.8.268l-1.2,2.4A.6.6,0,0,0,.6,3.6H2.027l-.765,1.53a.6.6,0,0,0,1.072.536l1.2-2.4A.6.6,0,0,0,3,2.4H1.569L2.334.868A.6.6,0,0,0,2.066.063Z" transform="translate(17.98 0)" fill="#0c1222"/>
          </g>
        </g>
        <g id="Group_289" data-name="Group 289" transform="translate(32.581 43.715)">
          <g transform="matrix(1, 0, 0, 1, -36.58, -44.71)" filter="url(#Path_787)">
            <path id="Path_787-2" data-name="Path 787" d="M110.1,679.807H93.543a.635.635,0,0,1-.633-.633v-6.881a.635.635,0,0,1,.633-.633H110.1a.635.635,0,0,1,.633.633v6.881A.634.634,0,0,1,110.1,679.807Z" transform="translate(-56.33 -626.95)" fill="url(#linear-gradient)"/>
          </g>
          <path id="Path_788" data-name="Path 788" d="M141.9,720.593a.983.983,0,0,1-.208.728,1.309,1.309,0,0,1-.848.192h-.63v1.445h-.368v-3.713h1a1.3,1.3,0,0,1,.848.194.986.986,0,0,1,.208.729Zm-1.11-1h-.575v1.578h.575a1.084,1.084,0,0,0,.581-.1.453.453,0,0,0,.129-.375v-.635a.456.456,0,0,0-.122-.37A1.1,1.1,0,0,0,140.793,719.592Zm2.818-.393a.87.87,0,0,1,.735.3,1.6,1.6,0,0,1,.228.965v1.29a1.582,1.582,0,0,1-.228.96.873.873,0,0,1-.735.293h-.318a.873.873,0,0,1-.737-.293,1.589,1.589,0,0,1-.226-.96v-1.29a1.607,1.607,0,0,1,.226-.965.87.87,0,0,1,.737-.3Zm-.047.368h-.225a.567.567,0,0,0-.484.179,1.319,1.319,0,0,0-.131.714v1.29a1.311,1.311,0,0,0,.131.711.565.565,0,0,0,.484.179h.225a.567.567,0,0,0,.484-.179,1.311,1.311,0,0,0,.131-.711v-1.29a1.32,1.32,0,0,0-.131-.714A.567.567,0,0,0,143.563,719.568Zm1.588,3.391v-3.713h.368V722.6h1.1v.363Zm1.755,0v-3.713h.368V722.6h1.1v.363Zm-10.358-.28h1.615a.278.278,0,0,0,0-.556h-1.615a.278.278,0,0,0,0,.556Zm1.112-2.852h-1.113a.278.278,0,1,0,0,.556h1.113a.278.278,0,1,0,0-.556Zm1.113,1.113h-2.225a.278.278,0,1,0,0,.556h2.225a.278.278,0,1,0,0-.556Z" transform="translate(-133.431 -716.997)" fill="#fff"/>
        </g>
        <g id="Group_290" data-name="Group 290" transform="translate(11.992 41.205) rotate(-14)">
          <g transform="matrix(0.97, 0.24, -0.24, 0.97, -5.31, -44.82)" filter="url(#Rectangle_40)">
            <rect id="Rectangle_40-2" data-name="Rectangle 40" width="32.049" height="9.976" rx="4.988" transform="translate(16.16 42.25) rotate(-14)" fill="#fff"/>
          </g>
          <g id="Group_266" data-name="Group 266" transform="translate(0 0)">
            <path id="Path_826" data-name="Path 826" d="M7.984,0V9.9H1.647A1.766,1.766,0,0,1,0,8.768V1.132A1.767,1.767,0,0,1,1.647,0H7.984Z" transform="translate(0.236 0.117)" fill="#fff"/>
            <path id="Path_827" data-name="Path 827" d="M7.984,1.766V8.134A1.766,1.766,0,0,1,6.219,9.9H0V0H6.219A1.766,1.766,0,0,1,7.984,1.766Z" transform="translate(24.189 0.117)" fill="#dcdcdc"/>
            <path id="Path_828" data-name="Path 828" d="M30.407,10.135H1.883A1.9,1.9,0,0,1,.126,8.928,1.857,1.857,0,0,1,0,8.252V1.883a1.861,1.861,0,0,1,.126-.677A1.894,1.894,0,0,1,1.883,0H30.407A1.885,1.885,0,0,1,32.29,1.883V8.252A1.885,1.885,0,0,1,30.407,10.135ZM1.883.235A1.658,1.658,0,0,0,.345,1.291a1.625,1.625,0,0,0-.11.592V8.251a1.628,1.628,0,0,0,.11.591A1.657,1.657,0,0,0,1.883,9.9H30.407a1.649,1.649,0,0,0,1.647-1.647V1.883A1.649,1.649,0,0,0,30.407.236H1.883Z" transform="translate(0 0)" fill="#e6e6e6"/>
            <g id="Group_262" data-name="Group 262" transform="translate(5.137 5.211)">
              <g id="Group_261" data-name="Group 261" transform="translate(0 0)">
                <path id="Path_863" data-name="Path 863" d="M1.82.26Q1.649.574,1.5.881T1.222,1.5q-.124.31-.215.624a4.944,4.944,0,0,0-.141.643H.4a4.691,4.691,0,0,1,.13-.584q.085-.292.2-.583t.256-.586q.142-.295.3-.595H0V.04H1.82ZM2.248,2.7V2.278a.964.964,0,0,0,.543.181.673.673,0,0,0,.447-.142.467.467,0,0,0,.169-.377.426.426,0,0,0-.172-.361.809.809,0,0,0-.493-.129q-.11,0-.447.023L2.392.04H3.734V.416H2.759L2.713,1.1q.131-.008.238-.008a.941.941,0,0,1,.67.222.794.794,0,0,1,.237.608.831.831,0,0,1-.271.649,1.07,1.07,0,0,1-.744.244A1.231,1.231,0,0,1,2.248,2.7ZM4.9,1.408a.6.6,0,0,1-.46-.185A.7.7,0,0,1,4.273.728.751.751,0,0,1,4.455.195.636.636,0,0,1,4.944,0a.594.594,0,0,1,.463.181.726.726,0,0,1,.164.507.735.735,0,0,1-.184.523A.631.631,0,0,1,4.9,1.408ZM4.931.266a.292.292,0,0,0-.246.12.535.535,0,0,0-.09.329.51.51,0,0,0,.088.319.29.29,0,0,0,.242.114.283.283,0,0,0,.241-.119A.547.547,0,0,0,5.254.7.518.518,0,0,0,5.167.38.281.281,0,0,0,4.931.266ZM6.749.04,5,2.784H4.729L6.475.04ZM6.5,2.806a.6.6,0,0,1-.46-.185.7.7,0,0,1-.171-.495.751.751,0,0,1,.181-.533A.636.636,0,0,1,6.544,1.4a.594.594,0,0,1,.463.181.726.726,0,0,1,.164.507.735.735,0,0,1-.184.523A.631.631,0,0,1,6.5,2.806ZM6.53,1.664a.292.292,0,0,0-.246.12.535.535,0,0,0-.09.329.51.51,0,0,0,.088.319.29.29,0,0,0,.242.114.283.283,0,0,0,.241-.119.547.547,0,0,0,.087-.33.518.518,0,0,0-.086-.319A.281.281,0,0,0,6.53,1.664Z" transform="translate(0)"/>
              </g>
            </g>
            <g id="Group_264" data-name="Group 264" transform="translate(20.827 5.002)">
              <g id="Group_263" data-name="Group 263" transform="translate(0 0)">
                <path id="Path_862" data-name="Path 862" d="M1.449,2.347H0V2.169a.671.671,0,0,1,.031-.205.831.831,0,0,1,.082-.18,1,1,0,0,1,.121-.159Q.3,1.549.382,1.479t.161-.135Q.625,1.278.7,1.212t.135-.123a.822.822,0,0,0,.1-.125A.565.565,0,0,0,1.011.828.484.484,0,0,0,1.035.673a.419.419,0,0,0-.028-.16A.311.311,0,0,0,.928.4.337.337,0,0,0,.808.329.471.471,0,0,0,.657.306.7.7,0,0,0,.369.372a.986.986,0,0,0-.282.2V.211A1.178,1.178,0,0,1,.23.118.977.977,0,0,1,.38.052.923.923,0,0,1,.543.013,1.22,1.22,0,0,1,.725,0a.919.919,0,0,1,.283.041.6.6,0,0,1,.217.121.531.531,0,0,1,.139.2.714.714,0,0,1,.049.274.851.851,0,0,1-.035.252.815.815,0,0,1-.1.208,1.082,1.082,0,0,1-.154.184q-.09.087-.2.179Q.832,1.533.74,1.6t-.167.14a.782.782,0,0,0-.12.137.245.245,0,0,0-.046.138v.008H1.449Zm.473-.053V1.935a.817.817,0,0,0,.46.153.57.57,0,0,0,.378-.12.4.4,0,0,0,.143-.32.361.361,0,0,0-.146-.306.686.686,0,0,0-.418-.109q-.093,0-.378.019L2.045.039H3.181V.357H2.355L2.317.935q.111-.006.2-.006a.8.8,0,0,1,.568.188.673.673,0,0,1,.2.515.7.7,0,0,1-.229.55.907.907,0,0,1-.63.207A1.043,1.043,0,0,1,1.922,2.294ZM4.173,1.2a.5.5,0,0,1-.39-.157A.594.594,0,0,1,3.639.621.636.636,0,0,1,3.792.17.539.539,0,0,1,4.207,0,.5.5,0,0,1,4.6.158a.616.616,0,0,1,.139.43.622.622,0,0,1-.156.444A.535.535,0,0,1,4.173,1.2ZM4.2.23a.247.247,0,0,0-.208.1A.453.453,0,0,0,3.911.61a.432.432,0,0,0,.075.27.246.246,0,0,0,.205.1.24.24,0,0,0,.2-.1A.463.463,0,0,0,4.469.6.439.439,0,0,0,4.4.327.238.238,0,0,0,4.2.23ZM5.736.039,4.255,2.364h-.23L5.5.039ZM5.529,2.383a.5.5,0,0,1-.39-.157.594.594,0,0,1-.145-.419.636.636,0,0,1,.154-.452.539.539,0,0,1,.415-.165.5.5,0,0,1,.392.153.616.616,0,0,1,.139.43.622.622,0,0,1-.156.444A.535.535,0,0,1,5.529,2.383Zm.023-.968a.247.247,0,0,0-.208.1.453.453,0,0,0-.076.279.432.432,0,0,0,.075.27.246.246,0,0,0,.205.1.24.24,0,0,0,.2-.1.463.463,0,0,0,.074-.279.439.439,0,0,0-.073-.27A.238.238,0,0,0,5.551,1.415Z" transform="translate(0)"/>
              </g>
            </g>
            <path id="Path_829" data-name="Path 829" d="M1.238,2.48H.859v-1L0,.04H.423l.622,1.077h.012L1.679.04H2.1L1.237,1.481v1Zm2.679-.328v.328H2.368V.04H3.917V.367H2.747V1.08H3.854v.314H2.747v.758ZM4.2,1.8h.374a.394.394,0,0,0,.181.291.7.7,0,0,0,.4.11.637.637,0,0,0,.38-.107.321.321,0,0,0,.15-.271.29.29,0,0,0-.107-.232.847.847,0,0,0-.343-.148l-.316-.076a1.029,1.029,0,0,1-.5-.242A.564.564,0,0,1,4.262.71.626.626,0,0,1,4.51.2,1,1,0,0,1,5.15,0a.969.969,0,0,1,.629.2A.653.653,0,0,1,6.031.71H5.662A.387.387,0,0,0,5.506.424a.584.584,0,0,0-.361-.1.587.587,0,0,0-.358.1A.313.313,0,0,0,4.65.684a.258.258,0,0,0,.1.211.918.918,0,0,0,.34.141l.269.066A1.164,1.164,0,0,1,5.9,1.35a.567.567,0,0,1,.167.429.655.655,0,0,1-.253.542,1.082,1.082,0,0,1-.688.2,1.049,1.049,0,0,1-.66-.2A.673.673,0,0,1,4.2,1.8Z" transform="translate(5.153 1.478)" fill="url(#linear-gradient-5)"/>
            <path id="Path_830" data-name="Path 830" d="M.369,2.481H0V.041H.343l1.265,1.8h.013V.041h.369V2.481H1.649L.384.684H.369ZM3.5,0a1.072,1.072,0,0,1,.835.34,1.32,1.32,0,0,1,.309.922,1.318,1.318,0,0,1-.308.921,1.071,1.071,0,0,1-.836.339,1.073,1.073,0,0,1-.836-.339,1.318,1.318,0,0,1-.308-.921A1.321,1.321,0,0,1,2.66.34,1.07,1.07,0,0,1,3.5,0Zm0,.333a.674.674,0,0,0-.552.25,1.042,1.042,0,0,0-.2.678,1.04,1.04,0,0,0,.2.677.676.676,0,0,0,.552.25.673.673,0,0,0,.551-.25,1.039,1.039,0,0,0,.2-.677,1.044,1.044,0,0,0-.2-.678A.674.674,0,0,0,3.5.333Z" transform="translate(21.479 1.477)" fill="url(#linear-gradient-6)"/>
          </g>
        </g>
        <g id="Group_291" data-name="Group 291" transform="matrix(0.999, -0.052, 0.052, 0.999, 20.877, 51.593)">
          <g transform="matrix(1, 0.05, -0.05, 1, -22.09, -53.82)" filter="url(#Path_803)">
            <path id="Path_803-2" data-name="Path 803" d="M26.207,8.242H.791A.794.794,0,0,1,0,7.451V.791A.794.794,0,0,1,.791,0H26.207A.794.794,0,0,1,27,.791V7.45A.793.793,0,0,1,26.207,8.242Z" transform="matrix(1, -0.05, 0.05, 1, 24.88, 52.59)" fill="#fffeff"/>
          </g>
          <path id="Path_804" data-name="Path 804" d="M18.823,1.589H.794A.8.8,0,0,1,0,.794H0A.8.8,0,0,1,.794,0H18.823a.8.8,0,0,1,.794.794h0A.8.8,0,0,1,18.823,1.589Z" transform="translate(3.55 3.291)" fill="#dadada"/>
          <path id="Path_805" data-name="Path 805" d="M11.864,0H.794a.794.794,0,0,0,0,1.589h11.07Z" transform="translate(3.55 3.291)" fill="url(#linear-gradient)"/>
          <path id="Path_815" data-name="Path 815" d="M3.572,1.323a.941.941,0,0,1-.055.369A.112.112,0,0,1,3.3,1.679,2.906,2.906,0,0,0,2.04.012a.113.113,0,0,0-.164.1A3.439,3.439,0,0,1,.988,2.186a.113.113,0,0,1-.2-.054,1.679,1.679,0,0,0-.083-.309.1.1,0,0,0-.2.007C.194,2.905-.46,3.926.512,4.9a2.45,2.45,0,0,0,3.367.059,2.686,2.686,0,0,0-.114-3.716A.11.11,0,0,0,3.572,1.323Z" transform="translate(13.453 0.943)" stroke="#fff" stroke-width="0.5" fill="url(#radial-gradient)"/>
          <path id="Path_816" data-name="Path 816" d="M.784.014C.743.044.751.118.742.162A1.068,1.068,0,0,1,.48.756a2.256,2.256,0,0,0-.353.337A1,1,0,0,0,.284,2.266a.9.9,0,0,0,1.342-.02.744.744,0,0,0-.062-.955.191.191,0,0,0-.017.061.487.487,0,0,1-.355.366c-.034.01-.087.006-.09-.026a.055.055,0,0,1,.013-.033,1.059,1.059,0,0,0,.2-.951A1.979,1.979,0,0,0,1.032.169C1,.117.9-.016.81,0A.087.087,0,0,0,.784.014Z" transform="translate(14.855 3.213)" fill="#fff"/>
        </g>
        <g id="Group_292" data-name="Group 292" transform="matrix(0.996, -0.087, 0.087, 0.996, 34.907, 55.387)">
          <g id="Group_284" data-name="Group 284" transform="translate(0 0)">
            <path id="Path_833" data-name="Path 833" d="M.113.976H.092A.092.092,0,0,1,0,.885V.092A.092.092,0,0,1,.092,0H.113A.092.092,0,0,1,.2.092V.885A.092.092,0,0,1,.113.976" transform="translate(1.767 0)" fill="#3c4045"/>
            <path id="Path_834" data-name="Path 834" d="M.042.732.027.717a.092.092,0,0,1,0-.13L.587.027a.092.092,0,0,1,.13,0L.732.042a.092.092,0,0,1,0,.13L.171.732a.092.092,0,0,1-.13,0" transform="translate(2.466 0.513)" fill="#3c4045"/>
            <path id="Path_835" data-name="Path 835" d="M0,.113V.092A.092.092,0,0,1,.092,0H.885A.092.092,0,0,1,.976.092V.113A.092.092,0,0,1,.885.2H.092A.092.092,0,0,1,0,.113" transform="translate(2.762 1.767)" fill="#3c4045"/>
            <path id="Path_836" data-name="Path 836" d="M.027.042.042.027a.092.092,0,0,1,.13,0L.732.587a.092.092,0,0,1,0,.13L.717.732a.092.092,0,0,1-.13,0L.027.171a.092.092,0,0,1,0-.13" transform="translate(2.466 2.466)" fill="#3c4045"/>
            <path id="Path_837" data-name="Path 837" d="M.092,0H.113A.092.092,0,0,1,.2.092V.885A.092.092,0,0,1,.113.976H.092A.092.092,0,0,1,0,.885V.092A.092.092,0,0,1,.092,0" transform="translate(1.767 2.762)" fill="#fff"/>
            <path id="Path_838" data-name="Path 838" d="M.717.027.732.042a.092.092,0,0,1,0,.13L.171.732a.092.092,0,0,1-.13,0L.027.717a.092.092,0,0,1,0-.13L.587.027a.092.092,0,0,1,.13,0" transform="translate(0.513 2.466)" fill="#3c4045"/>
            <path id="Path_839" data-name="Path 839" d="M.976.092V.113A.092.092,0,0,1,.885.2H.092A.092.092,0,0,1,0,.113V.092A.092.092,0,0,1,.092,0H.885A.092.092,0,0,1,.976.092" transform="translate(0 1.767)" fill="#3c4045"/>
            <path id="Path_840" data-name="Path 840" d="M.732.717.717.732a.092.092,0,0,1-.13,0L.027.171a.092.092,0,0,1,0-.13L.042.027a.092.092,0,0,1,.13,0L.732.587a.092.092,0,0,1,0,.13" transform="translate(0.513 0.513)" fill="#3c4045"/>
            <path id="Path_841" data-name="Path 841" d="M3.489,2h-.13a.307.307,0,0,0-.254.135V2.108A.307.307,0,0,0,2.8,1.8h-.13a.307.307,0,0,0-.264.152.307.307,0,0,0-.3-.23h-.13a.306.306,0,0,0-.272.165V.358A.358.358,0,0,0,1.346,0H1.317A.358.358,0,0,0,.959.358V3.109L.892,2.985A.47.47,0,0,0,.254,2.8l-.009,0a.47.47,0,0,0-.188.638L.874,4.931a.787.787,0,0,0,.056.1h0a.769.769,0,0,0,.645.351H3.026a.77.77,0,0,0,.77-.766h0V2.3A.307.307,0,0,0,3.489,2" transform="translate(0.543 1.711)" fill="#fff"/>
            <path id="Path_842" data-name="Path 842" d="M3.1,5.542H1.653a.846.846,0,0,1-.71-.385h0a.837.837,0,0,1-.06-.11L.067,3.556a.549.549,0,0,1,.219-.744l.009,0a.549.549,0,0,1,.665.108V.436A.437.437,0,0,1,1.4,0h.029A.437.437,0,0,1,1.86.436V1.775a.383.383,0,0,1,.193-.052h.13a.385.385,0,0,1,.317.166A.386.386,0,0,1,2.745,1.8h.13a.386.386,0,0,1,.362.252A.386.386,0,0,1,3.437,2h.13a.386.386,0,0,1,.386.385V4.7a.85.85,0,0,1-.848.843M.556,2.9a.39.39,0,0,0-.187.048l-.009,0A.392.392,0,0,0,.2,3.48l.816,1.491,0,.006a.715.715,0,0,0,.05.092.689.689,0,0,0,.579.315H3.1A.693.693,0,0,0,3.8,4.7V2.383a.229.229,0,0,0-.228-.228h-.13a.228.228,0,0,0-.189.1A.079.079,0,0,1,3.1,2.211V2.187a.229.229,0,0,0-.229-.228h-.13a.227.227,0,0,0-.2.113.079.079,0,0,1-.144-.02.228.228,0,0,0-.221-.171h-.13a.229.229,0,0,0-.2.123A.078.078,0,0,1,1.7,1.966V.436A.28.28,0,0,0,1.424.157H1.4a.28.28,0,0,0-.279.279V3.187a.078.078,0,0,1-.147.038L.9,3.1a.392.392,0,0,0-.344-.2M3.874,4.7h0Z" transform="translate(0.465 1.633)" fill="#3c4045"/>
            <path id="Path_843" data-name="Path 843" d="M0,0V0Z" transform="translate(3.647 3.844)" fill="#fff"/>
            <path id="Path_844" data-name="Path 844" d="M.079,1.018A.079.079,0,0,1,0,.94V.079a.079.079,0,0,1,.157,0V.94a.079.079,0,0,1-.079.079" transform="translate(3.569 3.765)" fill="#3c4045"/>
            <path id="Path_845" data-name="Path 845" d="M0,0V0Z" transform="translate(2.947 3.662)" fill="#fff"/>
            <path id="Path_846" data-name="Path 846" d="M.079,1.136A.079.079,0,0,1,0,1.057V.078a.079.079,0,0,1,.157,0v.979a.079.079,0,0,1-.079.079" transform="translate(2.868 3.583)" fill="#3c4045"/>
            <path id="Path_847" data-name="Path 847" d="M0,0V0Z" transform="translate(2.246 3.589)" fill="#fff"/>
            <path id="Path_848" data-name="Path 848" d="M.079,1.136A.079.079,0,0,1,0,1.057V.078a.079.079,0,0,1,.157,0v.979a.079.079,0,0,1-.079.079" transform="translate(2.168 3.51)" fill="#3c4045"/>
          </g>
        </g>
      </g>
    </g>
    <g id="Group_295" data-name="Group 295" transform="translate(87 10.762)">
      <path id="Path_849-2" data-name="Path 849" d="M13.992-185.881v-44.745H25.648v35.22H40v9.526Zm57.4-31.836h-10.9v-1.065q0-4.826-3.352-4.825a3.311,3.311,0,0,0-2.719,1.159,4.264,4.264,0,0,0-.948,2.789q0,3.447,4.951,5.7a93.277,93.277,0,0,1,9.15,4.449q4.951,3.7,4.951,10.716Q72.525-185,56.669-185q-7.52,0-11.155-2.82-3.885-3.071-3.885-9.776v-1.567h11.28v1.065q0,5.2,3.823,5.2a3.374,3.374,0,0,0,2.757-1.222,4.73,4.73,0,0,0,1-3.1q0-3.509-4.763-5.64-7.959-3.7-8.774-4.324-4.763-3.509-4.763-10.34,0-13.975,14.7-13.975,7.6,0,11.054,3.29T71.4-217.717Zm16.921-4.512v27.95H90.6a4.246,4.246,0,0,0,4.128-2.569,14.3,14.3,0,0,0,.986-5.7v-11.406a14.3,14.3,0,0,0-.986-5.7,4.246,4.246,0,0,0-4.128-2.569ZM76.661-185.881v-44.745H93.581q9.087,0,12.158,6.768,2.005,4.512,2.005,15.6t-2.005,15.6q-3.071,6.768-12.158,6.768Z" transform="translate(-13.992 235.963)" fill="#343a49"/>
      <g id="Mask_Group_4" data-name="Mask Group 4" transform="translate(0 0)" clip-path="url(#clip-path-2)">
        <rect id="Rectangle_47" data-name="Rectangle 47" width="154.257" height="3.76" transform="translate(-51.53 39.237) rotate(-45)" fill="#0d4dfe"/>
        <rect id="Rectangle_48" data-name="Rectangle 48" width="154.257" height="3.76" transform="translate(-48.908 41.859) rotate(-45)" fill="#c0f"/>
        <rect id="Rectangle_49" data-name="Rectangle 49" width="154.257" height="3.76" transform="translate(-46.213 44.555) rotate(-45)" fill="#0d4dfe"/>
        <rect id="Rectangle_50" data-name="Rectangle 50" width="154.257" height="3.76" transform="translate(-43.591 47.177) rotate(-45)" fill="#c0f"/>
        <path id="Path_850" data-name="Path 850" d="M0,0,154.4.139V3.9H.139Z" transform="translate(-41.093 49.872) rotate(-45)" fill="#0d4dfe"/>
        <rect id="Rectangle_51" data-name="Rectangle 51" width="154.257" height="3.76" transform="translate(-38.274 52.494) rotate(-45)" fill="#c0f"/>
        <rect id="Rectangle_52" data-name="Rectangle 52" width="154.257" height="3.76" transform="translate(-35.775 55.189) rotate(-45)" fill="#0d4dfe"/>
        <rect id="Rectangle_53" data-name="Rectangle 53" width="154.257" height="3.76" transform="translate(-33.153 57.811) rotate(-45)" fill="#c0f"/>
        <rect id="Rectangle_54" data-name="Rectangle 54" width="154.257" height="3.76" transform="translate(-30.655 60.507) rotate(-45)" fill="#0d4dfe"/>
        <rect id="Rectangle_55" data-name="Rectangle 55" width="154.257" height="3.76" transform="translate(-28.033 63.129) rotate(-45)" fill="#c0f"/>
        <rect id="Rectangle_56" data-name="Rectangle 56" width="154.257" height="3.76" transform="translate(-25.535 65.824) rotate(-45)" fill="#0d4dfe"/>
        <rect id="Rectangle_57" data-name="Rectangle 57" width="154.257" height="3.76" transform="translate(-22.913 68.446) rotate(-45)" fill="#c0f"/>
        <rect id="Rectangle_58" data-name="Rectangle 58" width="154.257" height="3.76" transform="translate(-20.414 71.142) rotate(-45)" fill="#0d4dfe"/>
        <rect id="Rectangle_59" data-name="Rectangle 59" width="154.257" height="3.76" transform="translate(-17.792 73.764) rotate(-45)" fill="#c0f"/>
        <rect id="Rectangle_60" data-name="Rectangle 60" width="154.257" height="3.76" transform="translate(-15.353 76.459) rotate(-45)" fill="#0d4dfe"/>
        <rect id="Rectangle_61" data-name="Rectangle 61" width="154.257" height="3.76" transform="translate(-12.731 79.081) rotate(-45)" fill="#c0f"/>
        <path id="Path_851" data-name="Path 851" d="M0,0,154.439.181v3.76H.181Z" transform="translate(-10.293 81.776) rotate(-45)" fill="#0d4dfe"/>
        <rect id="Rectangle_62" data-name="Rectangle 62" width="154.257" height="3.76" transform="translate(-7.414 84.399) rotate(-45)" fill="#c0f"/>
        <rect id="Rectangle_63" data-name="Rectangle 63" width="154.257" height="3.76" transform="translate(-4.975 87.094) rotate(-45)" fill="#0d4dfe"/>
        <rect id="Rectangle_64" data-name="Rectangle 64" width="154.257" height="3.76" transform="translate(-2.353 89.716) rotate(-45)" fill="#c0f"/>
        <rect id="Rectangle_65" data-name="Rectangle 65" width="154.257" height="3.76" transform="translate(-0.171 92.668) rotate(-45)" fill="#0d4dfe"/>
        <rect id="Rectangle_66" data-name="Rectangle 66" width="154.257" height="3.76" transform="translate(2.708 95.033) rotate(-45)" fill="#c0f"/>
        <rect id="Rectangle_67" data-name="Rectangle 67" width="154.257" height="3.76" transform="translate(5.147 97.729) rotate(-45)" fill="#0d4dfe"/>
        <rect id="Rectangle_68" data-name="Rectangle 68" width="154.257" height="3.76" transform="translate(7.512 100.351) rotate(-45)" fill="#c0f"/>
        <rect id="Rectangle_69" data-name="Rectangle 69" width="154.257" height="3.76" transform="translate(9.951 103.046) rotate(-45)" fill="#0d4dfe"/>
        <rect id="Rectangle_70" data-name="Rectangle 70" width="154.257" height="3.76" transform="translate(12.573 105.668) rotate(-45)" fill="#c0f"/>
        <rect id="Rectangle_71" data-name="Rectangle 71" width="154.257" height="3.76" transform="translate(-62.165 28.603) rotate(-45)" fill="#0d4dfe"/>
        <rect id="Rectangle_72" data-name="Rectangle 72" width="154.257" height="3.76" transform="translate(-59.543 31.225) rotate(-45)" fill="#c0f"/>
        <rect id="Rectangle_73" data-name="Rectangle 73" width="154.257" height="3.76" transform="translate(-56.848 33.92) rotate(-45)" fill="#0d4dfe"/>
        <rect id="Rectangle_74" data-name="Rectangle 74" width="154.257" height="3.76" transform="translate(-54.226 36.542) rotate(-45)" fill="#c0f"/>
        <rect id="Rectangle_75" data-name="Rectangle 75" width="154.257" height="3.76" transform="translate(15.012 108.363) rotate(-45)" fill="#0d4dfe"/>
        <rect id="Rectangle_76" data-name="Rectangle 76" width="154.257" height="3.76" transform="translate(17.634 110.985) rotate(-45)" fill="#c0f"/>
        <rect id="Rectangle_77" data-name="Rectangle 77" width="154.257" height="3.76" transform="translate(20.073 113.681) rotate(-45)" fill="#0d4dfe"/>
        <rect id="Rectangle_78" data-name="Rectangle 78" width="154.257" height="3.76" transform="translate(22.695 116.303) rotate(-45)" fill="#c0f"/>
        <rect id="Rectangle_79" data-name="Rectangle 79" width="154.257" height="3.76" transform="translate(25.39 118.998) rotate(-45)" fill="#0d4dfe"/>
        <rect id="Rectangle_80" data-name="Rectangle 80" width="154.257" height="3.76" transform="translate(28.012 121.62) rotate(-45)" fill="#c0f"/>
        <rect id="Rectangle_81" data-name="Rectangle 81" width="154.257" height="3.76" transform="translate(30.708 124.316) rotate(-45)" fill="#0d4dfe"/>
        <rect id="Rectangle_82" data-name="Rectangle 82" width="154.257" height="3.76" transform="translate(33.33 126.938) rotate(-45)" fill="#c0f"/>
      </g>
      <path id="Path_853" data-name="Path 853" d="M4-22.8H7.111v1.176H2.539v-7.1H4Zm9.121-1.9h-2.81v1.9h3.3v1.176H8.85v-7.1H13.6v1.186H10.313v1.693h2.81Zm7.691-2.84H18.639v5.919H17.175v-5.919H15.028v-1.186h5.787Zm8.513,4.055a.751.751,0,0,0-.293-.637,3.84,3.84,0,0,0-1.054-.468,7.471,7.471,0,0,1-1.205-.485,1.969,1.969,0,0,1-1.21-1.761,1.716,1.716,0,0,1,.324-1.027,2.117,2.117,0,0,1,.932-.705,3.508,3.508,0,0,1,1.364-.254,3.193,3.193,0,0,1,1.356.276,2.16,2.16,0,0,1,.925.778,2.036,2.036,0,0,1,.329,1.142H29.333a.958.958,0,0,0-.307-.759,1.264,1.264,0,0,0-.864-.271,1.35,1.35,0,0,0-.834.227.716.716,0,0,0-.3.6.685.685,0,0,0,.349.581,3.941,3.941,0,0,0,1.027.439,4.438,4.438,0,0,1,1.82.932A1.856,1.856,0,0,1,30.8-23.5a1.71,1.71,0,0,1-.7,1.447,3.055,3.055,0,0,1-1.879.525,3.627,3.627,0,0,1-1.493-.3,2.363,2.363,0,0,1-1.027-.822,2.106,2.106,0,0,1-.354-1.21h1.469q0,1.176,1.405,1.176a1.367,1.367,0,0,0,.815-.212A.691.691,0,0,0,29.328-23.49Zm8.706-4.055H35.858v5.919H34.394v-5.919H32.247v-1.186h5.787Zm7.433,2.527a4.289,4.289,0,0,1-.371,1.84,2.793,2.793,0,0,1-1.061,1.22,2.936,2.936,0,0,1-1.583.429,2.956,2.956,0,0,1-1.576-.424A2.82,2.82,0,0,1,39.8-23.166a4.166,4.166,0,0,1-.385-1.813v-.351a4.266,4.266,0,0,1,.378-1.847A2.816,2.816,0,0,1,40.863-28.4a2.939,2.939,0,0,1,1.578-.427,2.939,2.939,0,0,1,1.578.427,2.815,2.815,0,0,1,1.069,1.225,4.254,4.254,0,0,1,.378,1.842Zm-1.483-.322a2.99,2.99,0,0,0-.4-1.7,1.3,1.3,0,0,0-1.142-.581,1.3,1.3,0,0,0-1.137.573,2.955,2.955,0,0,0-.4,1.681v.346a3.027,3.027,0,0,0,.4,1.688,1.3,1.3,0,0,0,1.152.6,1.289,1.289,0,0,0,1.132-.578,3.009,3.009,0,0,0,.4-1.686Zm6.076,1.112H48.894v2.6H47.43v-7.1h2.64a2.984,2.984,0,0,1,1.942.561,1.937,1.937,0,0,1,.683,1.586,2.186,2.186,0,0,1-.315,1.213,2.146,2.146,0,0,1-.954.773l1.537,2.9v.068H51.392Zm-1.166-1.186h1.181a1.209,1.209,0,0,0,.854-.281,1,1,0,0,0,.3-.773,1.073,1.073,0,0,0-.285-.79,1.186,1.186,0,0,0-.876-.288H48.894Zm8.028-.117,1.478-3.2H60L57.669-24.2v2.576H56.18V-24.2l-2.332-4.528h1.605Zm8.015,3.9v-7.1h2.186a3.32,3.32,0,0,1,1.676.422,2.943,2.943,0,0,1,1.154,1.2,3.7,3.7,0,0,1,.415,1.769v.327a3.713,3.713,0,0,1-.407,1.761,2.918,2.918,0,0,1-1.149,1.2,3.345,3.345,0,0,1-1.674.429ZM66.4-27.545V-22.8h.708a1.59,1.59,0,0,0,1.313-.561,2.536,2.536,0,0,0,.464-1.605v-.376a2.576,2.576,0,0,0-.449-1.642,1.584,1.584,0,0,0-1.313-.559Zm8.56,3.318H73.795v2.6H72.331v-7.1h2.64a2.984,2.984,0,0,1,1.942.561,1.937,1.937,0,0,1,.683,1.586,2.186,2.186,0,0,1-.315,1.213,2.147,2.147,0,0,1-.954.773l1.537,2.9v.068H76.293Zm-1.166-1.186h1.181a1.209,1.209,0,0,0,.854-.281,1,1,0,0,0,.3-.773,1.073,1.073,0,0,0-.285-.79,1.186,1.186,0,0,0-.876-.288H73.795Zm7.369,3.786H79.7v-7.1h1.464Zm4.881-1.761,1.61-5.343h1.63l-2.474,7.1H85.284l-2.464-7.1h1.625Zm9.082-1.317H92.316v1.9h3.3v1.176H90.852v-7.1H95.6v1.186H92.316v1.693h2.811Z" transform="translate(-1.862 87.051)"/>
    </g>
  </g>
</svg>
